<svg width="56" height="57" viewBox="0 0 56 57" fill="none" xmlns="http://www.w3.org/2000/svg">
<g clip-path="url(#clip0_3407_82)">
<path d="M33.5 17.9304C32.3739 17.9479 31.2724 18.2623 30.3068 18.8417C29.3411 19.4211 28.5453 20.2451 28 21.2304C27.4546 20.2451 26.6589 19.4211 25.6932 18.8417C24.7275 18.2623 23.626 17.9479 22.5 17.9304C20.7049 18.0084 19.0137 18.7937 17.7958 20.1147C16.5778 21.4356 15.9322 23.1849 16 24.9804C16 29.5274 20.786 34.4934 24.8 37.8604C25.6962 38.6136 26.8293 39.0264 28 39.0264C29.1706 39.0264 30.3038 38.6136 31.2 37.8604C35.214 34.4934 40 29.5274 40 24.9804C40.0677 23.1849 39.4221 21.4356 38.2042 20.1147C36.9863 18.7937 35.295 18.0084 33.5 17.9304ZM29.915 36.3304C29.379 36.7818 28.7007 37.0293 28 37.0293C27.2992 37.0293 26.621 36.7818 26.085 36.3304C20.947 32.0194 18 27.8834 18 24.9804C17.9316 23.7151 18.3664 22.4741 19.2094 21.5281C20.0523 20.5821 21.2352 20.0078 22.5 19.9304C23.7648 20.0078 24.9476 20.5821 25.7906 21.5281C26.6336 22.4741 27.0683 23.7151 27 24.9804C27 25.2456 27.1053 25.5 27.2929 25.6875C27.4804 25.8751 27.7348 25.9804 28 25.9804C28.2652 25.9804 28.5196 25.8751 28.7071 25.6875C28.8946 25.5 29 25.2456 29 24.9804C28.9316 23.7151 29.3664 22.4741 30.2094 21.5281C31.0523 20.5821 32.2352 20.0078 33.5 19.9304C34.7648 20.0078 35.9476 20.5821 36.7906 21.5281C37.6336 22.4741 38.0683 23.7151 38 24.9804C38 27.8834 35.053 32.0194 29.915 36.3264V36.3304Z" fill="#181818"/>
</g>
<defs>
<clipPath id="clip0_3407_82">
<rect width="24" height="24" fill="white" transform="translate(16 16.0139)"/>
</clipPath>
</defs>
</svg>
